<svg width="20" height="20" fill="none" xmlns="http://www.w3.org/2000/svg"><path d="M14.627 0H5.174C2.29 0 0 2.4 0 5.4v9.2c0 2.9 2.289 5.3 5.274 5.4h9.452C17.612 20 20 17.6 20 14.6V5.4c-.1-3-2.388-5.4-5.373-5.4zm3.482 14.5c0 2-1.592 3.7-3.681 3.7H5.373c-1.99 0-3.681-1.7-3.582-3.7v-9c0-2 1.592-3.7 3.582-3.7h9.055c1.99 0 3.681 1.7 3.681 3.7v9z" fill="#fff"/><path d="M10.098 5.003c-2.743-.098-5.095 2.156-5.095 4.9C4.905 12.649 7.16 15 9.902 15s5.095-2.156 5.095-4.9v-.098c.098-2.745-2.156-4.999-4.899-4.999zm0 8.233A3.33 3.33 0 016.767 10.1a3.331 3.331 0 013.135-3.333c1.764-.098 3.233 1.372 3.331 3.137v.098c.098 1.764-1.371 3.234-3.135 3.234zM15 3c.546 0 1 .417 1 1s-.454 1-1 1-1-.417-1-1 .454-1 1-1z" fill="#fff"/></svg>