<svg width="19" height="16" fill="none" xmlns="http://www.w3.org/2000/svg"><path d="M5.975 16c7.17 0 11.092-6.155 11.092-11.492 0-.175-.004-.35-.012-.523A8.097 8.097 0 0019 1.894a7.567 7.567 0 01-2.239.636A4.032 4.032 0 0018.476.296a7.655 7.655 0 01-2.476.98A3.832 3.832 0 0013.155 0c-2.153 0-3.899 1.809-3.899 4.039 0 .317.035.625.101.92-3.24-.168-6.112-1.775-8.035-4.22a4.142 4.142 0 00-.528 2.03c0 1.402.689 2.64 1.735 3.363a3.766 3.766 0 01-1.765-.505l-.001.051c0 1.956 1.344 3.59 3.128 3.96a3.784 3.784 0 01-1.761.069c.496 1.605 1.935 2.773 3.642 2.805A7.649 7.649 0 010 14.185 10.757 10.757 0 005.975 16" fill="#fff"/></svg>